<mxfile host="app.diagrams.net" agent="Mozilla/5.0 (Macintosh; Intel Mac OS X 10_15_7) AppleWebKit/537.36 (KHTML, like Gecko) Chrome/135.0.0.0 Safari/537.36" version="26.1.0">
  <diagram name="Page-1" id="jrVaJ6fWPqKZzAmJQ2AH">
    <mxGraphModel dx="984" dy="1725" grid="1" gridSize="10" guides="1" tooltips="1" connect="1" arrows="1" fold="1" page="1" pageScale="1" pageWidth="850" pageHeight="1100" math="0" shadow="0">
      <root>
        <mxCell id="0" />
        <mxCell id="1" parent="0" />
        <mxCell id="PK34TOH7hWWAXa_A_bep-9" value="&lt;h2 data-start=&quot;857&quot; data-end=&quot;867&quot;&gt;ðŸ’¡ GOAL&lt;/h2&gt;&lt;p data-start=&quot;869&quot; data-end=&quot;1028&quot;&gt;We want to &lt;strong data-start=&quot;880&quot; data-end=&quot;913&quot;&gt;automatically detect failures&lt;/strong&gt;, &lt;strong data-start=&quot;915&quot; data-end=&quot;930&quot;&gt;send alerts&lt;/strong&gt;, and &lt;strong data-start=&quot;936&quot; data-end=&quot;979&quot;&gt;self-heal (restart the machine or task)&lt;/strong&gt; without needing to manually check each instance.&lt;/p&gt;" style="text;whiteSpace=wrap;html=1;" vertex="1" parent="1">
          <mxGeometry x="40" y="-730" width="600" height="100" as="geometry" />
        </mxCell>
        <mxCell id="PK34TOH7hWWAXa_A_bep-10" value="&lt;br style=&quot;forced-color-adjust: none;&quot;&gt;&lt;b style=&quot;forced-color-adjust: none;&quot;&gt;PROBLEM STATEMENT (Before Automation)&lt;/b&gt;&lt;br style=&quot;forced-color-adjust: none;&quot;&gt;&lt;ul class=&quot;ul1&quot; style=&quot;forced-color-adjust: none;&quot;&gt;&lt;br style=&quot;forced-color-adjust: none;&quot;&gt;&lt;li class=&quot;li2&quot; style=&quot;forced-color-adjust: none;&quot;&gt;We have&lt;span&gt;&amp;nbsp;&lt;/span&gt;&lt;b style=&quot;forced-color-adjust: none;&quot;&gt;EC2 instances&lt;/b&gt;&lt;span&gt;&amp;nbsp;&lt;/span&gt;running important&lt;span&gt;&amp;nbsp;&lt;/span&gt;&lt;b style=&quot;forced-color-adjust: none;&quot;&gt;scheduled tasks or applications&lt;/b&gt;.&lt;/li&gt;&lt;br style=&quot;forced-color-adjust: none;&quot;&gt;&lt;li class=&quot;li2&quot; style=&quot;forced-color-adjust: none;&quot;&gt;&lt;b style=&quot;forced-color-adjust: none;&quot;&gt;No automatic alerting system&lt;/b&gt;&lt;span&gt;&amp;nbsp;&lt;/span&gt;is currently set up.&lt;/li&gt;&lt;br style=&quot;forced-color-adjust: none;&quot;&gt;&lt;li class=&quot;li2&quot; style=&quot;forced-color-adjust: none;&quot;&gt;If something fails (like a job or service), we&lt;span&gt;&amp;nbsp;&lt;/span&gt;&lt;b style=&quot;forced-color-adjust: none;&quot;&gt;donâ€™t know until someone manually checks&lt;/b&gt;.&lt;/li&gt;&lt;br style=&quot;forced-color-adjust: none;&quot;&gt;&lt;li class=&quot;li2&quot; style=&quot;forced-color-adjust: none;&quot;&gt;We have to&lt;span&gt;&amp;nbsp;&lt;/span&gt;&lt;b style=&quot;forced-color-adjust: none;&quot;&gt;log in to every machine manually&lt;/b&gt;&lt;span&gt;&amp;nbsp;&lt;/span&gt;to check logs or task status.&lt;/li&gt;&lt;br style=&quot;forced-color-adjust: none;&quot;&gt;&lt;ul class=&quot;ul2&quot; style=&quot;forced-color-adjust: none;&quot;&gt;&lt;br style=&quot;forced-color-adjust: none;&quot;&gt;&lt;li class=&quot;li2&quot; style=&quot;forced-color-adjust: none;&quot;&gt;&amp;nbsp;&lt;b style=&quot;forced-color-adjust: none;&quot;&gt;Time-consuming&lt;/b&gt;&lt;/li&gt;&lt;br style=&quot;forced-color-adjust: none;&quot;&gt;&lt;li class=&quot;li2&quot; style=&quot;forced-color-adjust: none;&quot;&gt;&amp;nbsp;&lt;b style=&quot;forced-color-adjust: none;&quot;&gt;Error-prone&lt;/b&gt;&lt;/li&gt;&lt;br style=&quot;forced-color-adjust: none;&quot;&gt;&lt;li class=&quot;li2&quot; style=&quot;forced-color-adjust: none;&quot;&gt;&amp;nbsp;Not scalable â€” imagine doing this for&lt;span&gt;&amp;nbsp;&lt;/span&gt;&lt;b style=&quot;forced-color-adjust: none;&quot;&gt;1000 machines&lt;/b&gt;!&lt;/li&gt;&lt;br style=&quot;forced-color-adjust: none;&quot;&gt;&lt;/ul&gt;&lt;br style=&quot;forced-color-adjust: none;&quot;&gt;&lt;/ul&gt;&lt;br style=&quot;forced-color-adjust: none;&quot;&gt;&lt;div style=&quot;forced-color-adjust: none;&quot;&gt;&lt;br style=&quot;forced-color-adjust: none; color: rgb(0, 0, 0); font-family: Helvetica; font-size: 12px; font-style: normal; font-variant-ligatures: normal; font-variant-caps: normal; font-weight: 400; letter-spacing: normal; orphans: 2; text-align: center; text-indent: 0px; text-transform: none; widows: 2; word-spacing: 0px; -webkit-text-stroke-width: 0px; white-space: normal; background-color: rgb(251, 251, 251); text-decoration-thickness: initial; text-decoration-style: initial; text-decoration-color: initial;&quot;&gt;&lt;/div&gt;" style="text;whiteSpace=wrap;html=1;" vertex="1" parent="1">
          <mxGeometry x="40" y="-1030" width="560" height="350" as="geometry" />
        </mxCell>
        <mxCell id="PK34TOH7hWWAXa_A_bep-11" value="(Start)&#xa;Â  Â |&#xa;Â  Â v&#xa;CloudWatch agent logs to clodwatch group&#xa;Â |&#xa;v&#xa;&#xa;[CloudWatch Logs receive]&#xa;Â  Â |&#xa;Â  Â v&#xa;[Subscription Filter: Detect &quot;Error&quot;]&#xa;Â  Â |&#xa;Â  Â v&#xa;[Trigger Lambda 1: Parse error + Send SNS alert]&#xa;Â  Â |&#xa;Â  Â v&#xa;[sns tigger lambda 2]&#xa;Â Â Â Â |&#xa;&#xa;Â Â Â Â v&#xa;&#xa;Rebbot the instance" style="text;whiteSpace=wrap;" vertex="1" parent="1">
          <mxGeometry x="75" y="-550" width="350" height="360" as="geometry" />
        </mxCell>
        <mxCell id="PK34TOH7hWWAXa_A_bep-12" value="&lt;u&gt;&lt;b&gt;&lt;font style=&quot;font-size: 18px;&quot;&gt;workflow&lt;/font&gt;&lt;/b&gt;&lt;/u&gt;" style="text;html=1;align=center;verticalAlign=middle;resizable=0;points=[];autosize=1;strokeColor=none;fillColor=none;" vertex="1" parent="1">
          <mxGeometry x="70" y="-587" width="100" height="40" as="geometry" />
        </mxCell>
      </root>
    </mxGraphModel>
  </diagram>
</mxfile>
